<svg xmlns="http://www.w3.org/2000/svg" xmlns:xlink="http://www.w3.org/1999/xlink" width="500" zoomAndPan="magnify" viewBox="0 0 375 374.999991" height="500" preserveAspectRatio="xMidYMid meet" version="1.0"><defs><g/><clipPath id="id1"><path d="M 43.554688 29.339844 L 331.867188 29.339844 L 331.867188 256.210938 L 43.554688 256.210938 Z M 43.554688 29.339844 " clip-rule="nonzero"/></clipPath></defs><g clip-path="url(#id1)"><path fill="#12229d" d="M 51.933594 81.847656 L 51.933594 48.195312 L 52.730469 48.195312 L 52.730469 237.835938 L 51.933594 237.835938 L 51.933594 81.847656 M 62.6875 37.933594 L 312.894531 37.933594 L 312.894531 37.136719 L 62.6875 37.136719 L 62.6875 37.933594 M 45.160156 213.652344 L 43.566406 213.652344 L 43.566406 256.210938 L 86.1875 256.210938 L 86.1875 254.621094 L 45.160156 254.621094 L 45.160156 213.652344 M 45.160156 30.933594 L 86.1875 30.933594 L 86.1875 29.339844 L 43.566406 29.339844 L 43.566406 71.902344 L 45.160156 71.902344 L 45.160156 30.933594 M 323.570312 81.847656 L 323.570312 47.875 L 322.773438 47.875 L 322.773438 237.835938 L 323.570312 237.835938 L 323.570312 81.847656 M 312.816406 247.621094 L 62.367188 247.621094 L 62.367188 248.414062 L 312.816406 248.414062 L 312.816406 247.621094 M 289.234375 29.339844 L 289.234375 30.933594 L 330.261719 30.933594 L 330.261719 71.902344 L 331.855469 71.902344 L 331.855469 29.339844 L 289.234375 29.339844 M 330.261719 254.621094 L 289.234375 254.621094 L 289.234375 256.210938 L 331.855469 256.210938 L 331.855469 213.652344 L 330.261719 213.652344 L 330.261719 254.621094 " fill-opacity="1" fill-rule="nonzero"/></g><g fill="#000000" fill-opacity="1"><g transform="translate(4.682122, 350.266857)"><g><path d="M 9.984375 1.265625 L 8.921875 0.671875 C 8.660156 0.285156 8.5 -0.160156 8.4375 -0.671875 L 8.4375 -4.5625 C 7.914062 -4.8125 7.523438 -5.195312 7.265625 -5.71875 L 7.171875 -7.5625 L 7.265625 -9.203125 L 6.875 -10.28125 L 6.015625 -11.25 L 5.90625 -11.828125 L 5.90625 -16.484375 C 6.363281 -23.648438 7.492188 -30.738281 9.296875 -37.75 C 11.109375 -44.757812 13.242188 -51.625 15.703125 -58.34375 C 16.148438 -58.664062 16.695312 -58.796875 17.34375 -58.734375 C 17.539062 -59.703125 17.898438 -60.609375 18.421875 -61.453125 C 18.804688 -61.773438 19.289062 -61.90625 19.875 -61.84375 L 20.734375 -61.359375 L 21.515625 -60.671875 L 22.578125 -60.875 L 23.453125 -60.390625 C 23.773438 -59.992188 23.9375 -59.507812 23.9375 -58.9375 L 23.65625 -57.46875 C 24.363281 -57.601562 24.941406 -57.441406 25.390625 -56.984375 C 25.710938 -56.535156 25.875 -56.019531 25.875 -55.4375 C 25.164062 -52.082031 24.550781 -48.675781 24.03125 -45.21875 C 23.519531 -41.757812 23.035156 -38.285156 22.578125 -34.796875 L 22.78125 -34.796875 C 24.65625 -36.148438 26.507812 -37.550781 28.34375 -39 C 30.1875 -40.457031 32.015625 -41.929688 33.828125 -43.421875 L 33.828125 -43.609375 L 36.921875 -46.234375 L 36.921875 -46.421875 L 38 -47.5 L 38.1875 -47.5 C 40 -49.625 41.710938 -51.863281 43.328125 -54.21875 C 44.941406 -56.582031 45.878906 -59.1875 46.140625 -62.03125 C 46.066406 -63.382812 45.484375 -64.515625 44.390625 -65.421875 C 43.097656 -66.328125 41.675781 -66.941406 40.125 -67.265625 C 38.570312 -67.585938 36.957031 -67.75 35.28125 -67.75 C 30.375 -67.488281 25.546875 -66.566406 20.796875 -64.984375 C 16.046875 -63.398438 11.566406 -61.316406 7.359375 -58.734375 L 6.59375 -57.859375 L 5.53125 -57.671875 L 4.5625 -58.15625 L 4.078125 -59.21875 C 3.492188 -59.21875 3.003906 -59.378906 2.609375 -59.703125 C 2.222656 -60.160156 2.0625 -60.675781 2.125 -61.25 L 3 -62.515625 L 3.484375 -62.90625 C 3.484375 -63.550781 3.710938 -64.097656 4.171875 -64.546875 C 9.078125 -67.972656 14.359375 -70.671875 20.015625 -72.640625 C 25.671875 -74.609375 31.46875 -75.882812 37.40625 -76.46875 L 42.546875 -76.46875 C 45.265625 -76.207031 47.863281 -75.625 50.34375 -74.71875 C 52.832031 -73.820312 55.082031 -72.40625 57.09375 -70.46875 C 58.1875 -69.175781 58.957031 -67.769531 59.40625 -66.25 C 59.863281 -64.726562 60.03125 -63.097656 59.90625 -61.359375 C 59.125 -57.796875 57.988281 -54.332031 56.5 -50.96875 C 55.019531 -47.613281 52.921875 -44.613281 50.203125 -41.96875 L 49.4375 -41.1875 L 49.234375 -41.1875 L 49.234375 -41 C 48.003906 -39.769531 46.726562 -38.640625 45.40625 -37.609375 C 44.082031 -36.578125 42.804688 -35.539062 41.578125 -34.5 C 43.578125 -29.269531 45.914062 -24.164062 48.59375 -19.1875 C 51.28125 -14.21875 53.851562 -9.210938 56.3125 -4.171875 L 55.640625 -3.109375 C 55.179688 -2.847656 54.660156 -2.75 54.078125 -2.8125 C 53.503906 -3.132812 53.085938 -3.585938 52.828125 -4.171875 C 52.242188 -4.171875 51.722656 -4.265625 51.265625 -4.453125 L 50.59375 -3.96875 L 50.203125 -3.203125 C 49.753906 -2.878906 49.238281 -2.75 48.65625 -2.8125 L 47.984375 -3 L 47.296875 -1.9375 C 46.910156 -1.675781 46.425781 -1.578125 45.84375 -1.640625 L 44.875 -2.328125 L 43.609375 -5.625 C 43.097656 -5.5625 42.648438 -5.722656 42.265625 -6.109375 L 41.96875 -6.5 C 41.195312 -6.363281 40.550781 -6.585938 40.03125 -7.171875 C 38.28125 -10.660156 36.804688 -14.210938 35.609375 -17.828125 C 34.421875 -21.453125 33.34375 -25.070312 32.375 -28.6875 C 31.664062 -28.175781 30.988281 -27.613281 30.34375 -27 C 29.695312 -26.382812 28.953125 -26.007812 28.109375 -25.875 L 27.53125 -25.96875 L 27.046875 -25.390625 C 26.648438 -25.066406 26.164062 -24.9375 25.59375 -25 L 24.625 -25.59375 C 24.300781 -25.976562 24.171875 -26.460938 24.234375 -27.046875 L 24.421875 -27.625 L 22.875 -28.015625 L 21.71875 -27.234375 C 21.257812 -23.484375 20.867188 -19.703125 20.546875 -15.890625 C 20.222656 -12.078125 19.769531 -8.332031 19.1875 -4.65625 L 17.828125 -4.171875 C 17.316406 -4.492188 16.707031 -4.625 16 -4.5625 L 15.40625 -4.453125 L 14.640625 -4.75 C 14.566406 -3.90625 14.53125 -3.03125 14.53125 -2.125 C 14.53125 -1.226562 14.304688 -0.421875 13.859375 0.296875 C 13.410156 0.617188 12.894531 0.742188 12.3125 0.671875 L 11.625 0.484375 C 11.175781 1.003906 10.628906 1.265625 9.984375 1.265625 Z M 9.984375 1.265625 "/></g></g><g transform="translate(66.813795, 350.266857)"><g><path d="M 19.484375 2.90625 C 17.546875 2.707031 15.734375 2.222656 14.046875 1.453125 C 12.367188 0.679688 10.851562 -0.414062 9.5 -1.84375 C 7.5 -4.164062 6.140625 -6.765625 5.421875 -9.640625 C 4.710938 -12.515625 4.390625 -15.472656 4.453125 -18.515625 L 4.5625 -21.328125 L 4.359375 -24.421875 C 4.941406 -32.429688 6.992188 -40.054688 10.515625 -47.296875 C 14.035156 -54.535156 18.671875 -60.96875 24.421875 -66.59375 C 27.398438 -69.363281 30.726562 -71.554688 34.40625 -73.171875 C 38.09375 -74.785156 41.96875 -75.722656 46.03125 -75.984375 C 47.78125 -75.796875 49.414062 -75.378906 50.9375 -74.734375 C 52.457031 -74.085938 53.863281 -73.179688 55.15625 -72.015625 C 55.925781 -71.109375 56.632812 -70.1875 57.28125 -69.25 C 57.925781 -68.3125 58.347656 -67.296875 58.546875 -66.203125 L 58.0625 -65.234375 C 57.601562 -64.835938 57.082031 -64.675781 56.5 -64.75 L 55.53125 -65.140625 C 55.207031 -63.972656 54.953125 -62.773438 54.765625 -61.546875 C 55.347656 -60.316406 55.847656 -59.070312 56.265625 -57.8125 C 56.679688 -56.550781 57.019531 -55.242188 57.28125 -53.890625 L 57.46875 -53.890625 C 57.863281 -54.210938 58.351562 -54.34375 58.9375 -54.28125 L 59.796875 -53.796875 C 60.253906 -52.828125 60.484375 -51.789062 60.484375 -50.6875 L 61.15625 -49.921875 L 61.359375 -47.984375 C 61.804688 -47.785156 62.128906 -47.460938 62.328125 -47.015625 L 62.421875 -45.84375 C 62.097656 -43.257812 61.644531 -40.675781 61.0625 -38.09375 C 60.476562 -35.507812 59.894531 -32.988281 59.3125 -30.53125 C 59.769531 -30.144531 60 -29.628906 60 -28.984375 C 58.0625 -25.035156 55.863281 -21.253906 53.40625 -17.640625 C 50.945312 -14.023438 48.070312 -10.695312 44.78125 -7.65625 L 44.484375 -7.5625 L 44.484375 -7.359375 L 41.875 -5.140625 C 42 -4.359375 41.769531 -3.710938 41.1875 -3.203125 C 38.414062 -1.710938 35.59375 -0.390625 32.71875 0.765625 C 29.84375 1.929688 26.851562 2.644531 23.75 2.90625 Z M 30.34375 -12.21875 C 33.1875 -13.894531 35.800781 -15.894531 38.1875 -18.21875 C 40.582031 -20.550781 42.457031 -23.234375 43.8125 -26.265625 C 46.132812 -30.722656 48.101562 -35.375 49.71875 -40.21875 C 51.332031 -45.070312 52.660156 -49.953125 53.703125 -54.859375 C 53.304688 -56.347656 52.753906 -57.707031 52.046875 -58.9375 C 52.109375 -58.414062 51.945312 -57.992188 51.5625 -57.671875 C 51.113281 -57.285156 50.566406 -57.15625 49.921875 -57.28125 C 49.460938 -57.476562 49.101562 -57.800781 48.84375 -58.25 C 48.65625 -59.351562 48.300781 -60.367188 47.78125 -61.296875 C 47.269531 -62.234375 46.59375 -63.125 45.75 -63.96875 C 44.582031 -64.875 43.320312 -65.488281 41.96875 -65.8125 C 40.613281 -66.132812 39.160156 -66.265625 37.609375 -66.203125 C 36.117188 -66.265625 34.804688 -65.957031 33.671875 -65.28125 C 32.546875 -64.601562 31.5 -63.679688 30.53125 -62.515625 C 26.007812 -57.285156 22.34375 -51.488281 19.53125 -45.125 C 16.71875 -38.757812 14.957031 -32.148438 14.25 -25.296875 L 14.25 -20.640625 C 14.375 -18.898438 14.695312 -17.222656 15.21875 -15.609375 C 15.738281 -13.992188 16.578125 -12.539062 17.734375 -11.25 L 17.9375 -11.140625 L 17.9375 -10.953125 C 19.15625 -9.859375 20.640625 -9.34375 22.390625 -9.40625 C 23.804688 -9.664062 25.175781 -10.035156 26.5 -10.515625 C 27.832031 -11.003906 29.113281 -11.570312 30.34375 -12.21875 Z M 30.34375 -12.21875 "/></g></g><g transform="translate(129.527045, 350.266857)"><g><path d="M 38.859375 1.453125 L 37.890625 0.875 C 37.566406 0.488281 37.441406 0.00390625 37.515625 -0.578125 L 39.453125 -4.453125 L 38.375 -4.453125 L 35.765625 -1.453125 C 35.316406 -1.066406 34.769531 -0.9375 34.125 -1.0625 L 33.34375 -1.546875 C 33.019531 -1.929688 32.859375 -2.351562 32.859375 -2.8125 L 32.953125 -3.484375 L 32.078125 -4.359375 L 31.984375 -5.53125 L 31.796875 -5.53125 C 31.472656 -5.007812 31.019531 -4.617188 30.4375 -4.359375 L 29.5625 -4.359375 L 29.171875 -4.453125 L 28.203125 -3.6875 L 28.203125 -3.484375 C 27.679688 -2.972656 27.066406 -2.679688 26.359375 -2.609375 L 25.203125 -3.296875 L 24.8125 -4.453125 L 25.296875 -5.53125 C 29.628906 -9.664062 33.472656 -14.21875 36.828125 -19.1875 C 40.191406 -24.164062 43.195312 -29.304688 45.84375 -34.609375 C 47.519531 -38.160156 48.941406 -41.820312 50.109375 -45.59375 C 51.273438 -49.375 52.050781 -53.207031 52.4375 -57.09375 C 52.175781 -57.988281 51.785156 -58.859375 51.265625 -59.703125 C 50.753906 -60.546875 50.109375 -61.320312 49.328125 -62.03125 C 47.972656 -63.125 46.457031 -63.878906 44.78125 -64.296875 C 43.101562 -64.722656 41.359375 -64.9375 39.546875 -64.9375 C 36.765625 -64.8125 34.082031 -64.390625 31.5 -63.671875 C 28.914062 -62.960938 26.394531 -62.09375 23.9375 -61.0625 L 23.9375 -60.875 L 24.328125 -60.875 C 24.710938 -61.195312 25.195312 -61.320312 25.78125 -61.25 L 26.65625 -60.765625 C 26.976562 -60.378906 27.140625 -59.894531 27.140625 -59.3125 L 26.078125 -56.015625 L 26.359375 -54.859375 C 24.878906 -46.710938 23.703125 -37.710938 22.828125 -27.859375 C 21.953125 -18.003906 21.09375 -9.007812 20.25 -0.875 L 19.09375 -0.484375 L 18.125 -0.875 L 18.125 -1.0625 L 17.9375 -1.0625 C 17.539062 -1.582031 17.410156 -2.226562 17.546875 -3 L 17.640625 -4.078125 C 17.191406 -4.140625 16.804688 -4.363281 16.484375 -4.75 L 16.1875 -5.8125 L 15.890625 -5.8125 C 15.960938 -4.257812 15.671875 -2.835938 15.015625 -1.546875 L 13.859375 -1.15625 L 12.890625 -1.546875 L 12.890625 -1.75 L 12.703125 -1.75 C 12.304688 -2.257812 12.175781 -2.90625 12.3125 -3.6875 L 12.40625 -3.96875 L 10.859375 -4.5625 C 10.535156 -4.945312 10.34375 -5.394531 10.28125 -5.90625 L 9.984375 -6.015625 L 9.984375 -3.96875 L 10.078125 -3.484375 L 9.5 -2.421875 C 9.039062 -2.097656 8.523438 -1.96875 7.953125 -2.03125 L 6.984375 -2.71875 C 6.722656 -3.164062 6.59375 -3.679688 6.59375 -4.265625 L 6.59375 -11.140625 C 6.78125 -20.773438 7.40625 -28.804688 8.46875 -35.234375 C 9.539062 -41.660156 10.882812 -48.039062 12.5 -54.375 L 12.40625 -54.375 C 11.695312 -53.789062 10.953125 -53.175781 10.171875 -52.53125 C 9.398438 -51.882812 8.753906 -51.175781 8.234375 -50.40625 L 8.328125 -49.8125 C 8.203125 -49.363281 7.945312 -48.976562 7.5625 -48.65625 C 7.039062 -48.394531 6.457031 -48.296875 5.8125 -48.359375 C 5.164062 -48.617188 4.710938 -49.101562 4.453125 -49.8125 L 4.453125 -50.6875 C 5.035156 -52.113281 5.972656 -53.40625 7.265625 -54.5625 L 7.078125 -54.5625 C 6.492188 -53.988281 5.78125 -53.734375 4.9375 -53.796875 L 3.875 -54.375 C 3.550781 -54.757812 3.421875 -55.242188 3.484375 -55.828125 L 4.171875 -56.984375 L 5.71875 -58.25 L 5.71875 -58.734375 L 5.625 -59.3125 C 6.007812 -60.414062 6.71875 -61.351562 7.75 -62.125 C 12.269531 -65.613281 17.179688 -68.488281 22.484375 -70.75 C 27.785156 -73.007812 33.28125 -74.429688 38.96875 -75.015625 L 43.90625 -75.015625 C 46.945312 -74.753906 49.804688 -73.976562 52.484375 -72.6875 C 55.160156 -71.394531 57.664062 -69.8125 60 -67.9375 C 61.875 -66 63.164062 -63.785156 63.875 -61.296875 C 64.582031 -58.816406 64.875 -56.25 64.75 -53.59375 C 63.457031 -47.070312 61.859375 -40.578125 59.953125 -34.109375 C 58.046875 -27.648438 55.671875 -21.382812 52.828125 -15.3125 L 52.34375 -15.125 C 52.019531 -14.28125 51.660156 -13.4375 51.265625 -12.59375 C 50.878906 -11.757812 50.429688 -10.953125 49.921875 -10.171875 L 49.328125 -9.890625 C 48.878906 -8.847656 48.378906 -7.8125 47.828125 -6.78125 C 47.285156 -5.75 46.65625 -4.75 45.9375 -3.78125 L 44.578125 -3.296875 C 44.066406 -3.421875 43.582031 -3.679688 43.125 -4.078125 C 42.675781 -3.234375 42.238281 -2.375 41.8125 -1.5 C 41.394531 -0.625 40.898438 0.226562 40.328125 1.0625 C 39.929688 1.382812 39.441406 1.515625 38.859375 1.453125 Z M 38.859375 1.453125 "/></g></g><g transform="translate(197.765264, 350.266857)"><g><path d="M 9.984375 1.265625 L 8.921875 0.671875 C 8.660156 0.285156 8.5 -0.160156 8.4375 -0.671875 L 8.4375 -4.5625 C 7.914062 -4.8125 7.523438 -5.195312 7.265625 -5.71875 L 7.171875 -7.5625 L 7.265625 -9.203125 L 6.875 -10.28125 L 6.015625 -11.25 L 5.90625 -11.828125 L 5.90625 -16.484375 C 6.363281 -23.648438 7.492188 -30.738281 9.296875 -37.75 C 11.109375 -44.757812 13.242188 -51.625 15.703125 -58.34375 C 16.148438 -58.664062 16.695312 -58.796875 17.34375 -58.734375 C 17.539062 -59.703125 17.898438 -60.609375 18.421875 -61.453125 C 18.804688 -61.773438 19.289062 -61.90625 19.875 -61.84375 L 20.734375 -61.359375 L 21.515625 -60.671875 L 22.578125 -60.875 L 23.453125 -60.390625 C 23.773438 -59.992188 23.9375 -59.507812 23.9375 -58.9375 L 23.65625 -57.46875 C 24.363281 -57.601562 24.941406 -57.441406 25.390625 -56.984375 C 25.710938 -56.535156 25.875 -56.019531 25.875 -55.4375 C 25.164062 -52.082031 24.550781 -48.675781 24.03125 -45.21875 C 23.519531 -41.757812 23.035156 -38.285156 22.578125 -34.796875 L 22.78125 -34.796875 C 24.65625 -36.148438 26.507812 -37.550781 28.34375 -39 C 30.1875 -40.457031 32.015625 -41.929688 33.828125 -43.421875 L 33.828125 -43.609375 L 36.921875 -46.234375 L 36.921875 -46.421875 L 38 -47.5 L 38.1875 -47.5 C 40 -49.625 41.710938 -51.863281 43.328125 -54.21875 C 44.941406 -56.582031 45.878906 -59.1875 46.140625 -62.03125 C 46.066406 -63.382812 45.484375 -64.515625 44.390625 -65.421875 C 43.097656 -66.328125 41.675781 -66.941406 40.125 -67.265625 C 38.570312 -67.585938 36.957031 -67.75 35.28125 -67.75 C 30.375 -67.488281 25.546875 -66.566406 20.796875 -64.984375 C 16.046875 -63.398438 11.566406 -61.316406 7.359375 -58.734375 L 6.59375 -57.859375 L 5.53125 -57.671875 L 4.5625 -58.15625 L 4.078125 -59.21875 C 3.492188 -59.21875 3.003906 -59.378906 2.609375 -59.703125 C 2.222656 -60.160156 2.0625 -60.675781 2.125 -61.25 L 3 -62.515625 L 3.484375 -62.90625 C 3.484375 -63.550781 3.710938 -64.097656 4.171875 -64.546875 C 9.078125 -67.972656 14.359375 -70.671875 20.015625 -72.640625 C 25.671875 -74.609375 31.46875 -75.882812 37.40625 -76.46875 L 42.546875 -76.46875 C 45.265625 -76.207031 47.863281 -75.625 50.34375 -74.71875 C 52.832031 -73.820312 55.082031 -72.40625 57.09375 -70.46875 C 58.1875 -69.175781 58.957031 -67.769531 59.40625 -66.25 C 59.863281 -64.726562 60.03125 -63.097656 59.90625 -61.359375 C 59.125 -57.796875 57.988281 -54.332031 56.5 -50.96875 C 55.019531 -47.613281 52.921875 -44.613281 50.203125 -41.96875 L 49.4375 -41.1875 L 49.234375 -41.1875 L 49.234375 -41 C 48.003906 -39.769531 46.726562 -38.640625 45.40625 -37.609375 C 44.082031 -36.578125 42.804688 -35.539062 41.578125 -34.5 C 43.578125 -29.269531 45.914062 -24.164062 48.59375 -19.1875 C 51.28125 -14.21875 53.851562 -9.210938 56.3125 -4.171875 L 55.640625 -3.109375 C 55.179688 -2.847656 54.660156 -2.75 54.078125 -2.8125 C 53.503906 -3.132812 53.085938 -3.585938 52.828125 -4.171875 C 52.242188 -4.171875 51.722656 -4.265625 51.265625 -4.453125 L 50.59375 -3.96875 L 50.203125 -3.203125 C 49.753906 -2.878906 49.238281 -2.75 48.65625 -2.8125 L 47.984375 -3 L 47.296875 -1.9375 C 46.910156 -1.675781 46.425781 -1.578125 45.84375 -1.640625 L 44.875 -2.328125 L 43.609375 -5.625 C 43.097656 -5.5625 42.648438 -5.722656 42.265625 -6.109375 L 41.96875 -6.5 C 41.195312 -6.363281 40.550781 -6.585938 40.03125 -7.171875 C 38.28125 -10.660156 36.804688 -14.210938 35.609375 -17.828125 C 34.421875 -21.453125 33.34375 -25.070312 32.375 -28.6875 C 31.664062 -28.175781 30.988281 -27.613281 30.34375 -27 C 29.695312 -26.382812 28.953125 -26.007812 28.109375 -25.875 L 27.53125 -25.96875 L 27.046875 -25.390625 C 26.648438 -25.066406 26.164062 -24.9375 25.59375 -25 L 24.625 -25.59375 C 24.300781 -25.976562 24.171875 -26.460938 24.234375 -27.046875 L 24.421875 -27.625 L 22.875 -28.015625 L 21.71875 -27.234375 C 21.257812 -23.484375 20.867188 -19.703125 20.546875 -15.890625 C 20.222656 -12.078125 19.769531 -8.332031 19.1875 -4.65625 L 17.828125 -4.171875 C 17.316406 -4.492188 16.707031 -4.625 16 -4.5625 L 15.40625 -4.453125 L 14.640625 -4.75 C 14.566406 -3.90625 14.53125 -3.03125 14.53125 -2.125 C 14.53125 -1.226562 14.304688 -0.421875 13.859375 0.296875 C 13.410156 0.617188 12.894531 0.742188 12.3125 0.671875 L 11.625 0.484375 C 11.175781 1.003906 10.628906 1.265625 9.984375 1.265625 Z M 9.984375 1.265625 "/></g></g><g transform="translate(259.896938, 350.266857)"><g><path d="M 18.515625 5.328125 L 17.453125 4.65625 C 17.128906 4.195312 17.03125 3.644531 17.15625 3 L 17.25 2.421875 C 16.601562 2.484375 16.085938 2.289062 15.703125 1.84375 L 15.21875 0.875 L 14.25 0.390625 C 13.863281 -0.0664062 13.703125 -0.648438 13.765625 -1.359375 L 13.859375 -1.9375 L 13.28125 -1.9375 C 13.28125 -0.84375 13.019531 0.15625 12.5 1.0625 C 12.113281 1.382812 11.628906 1.515625 11.046875 1.453125 L 10.078125 0.875 L 9.796875 0.09375 L 9.5 0.09375 L 8.234375 0.296875 L 7.171875 -0.578125 L 6.984375 -1.453125 C 8.660156 -13.273438 10.597656 -25.050781 12.796875 -36.78125 C 14.992188 -48.507812 17.769531 -60.09375 21.125 -71.53125 C 21.519531 -71.851562 22.003906 -71.984375 22.578125 -71.921875 L 23.0625 -71.828125 C 23.195312 -72.722656 23.519531 -73.53125 24.03125 -74.25 C 24.488281 -74.5 24.972656 -74.660156 25.484375 -74.734375 C 25.679688 -75.179688 26.003906 -75.503906 26.453125 -75.703125 L 27.421875 -75.796875 L 28.296875 -75.3125 C 28.617188 -74.925781 28.78125 -74.441406 28.78125 -73.859375 L 28.6875 -73.078125 L 28.78125 -72.6875 C 29.425781 -72.757812 29.976562 -72.597656 30.4375 -72.203125 C 30.757812 -71.816406 30.921875 -71.332031 30.921875 -70.75 C 28.660156 -59.3125 27.007812 -47.789062 25.96875 -36.1875 C 24.9375 -24.59375 23.84375 -13.078125 22.6875 -1.640625 L 22.203125 -1.453125 C 22.265625 -0.160156 22.003906 0.96875 21.421875 1.9375 L 20.640625 2.421875 C 20.640625 3.390625 20.382812 4.226562 19.875 4.9375 C 19.476562 5.257812 19.023438 5.390625 18.515625 5.328125 Z M 18.515625 5.328125 "/></g></g><g transform="translate(297.699361, 350.266857)"><g><path d="M 51.953125 4.171875 L 50.984375 3.59375 L 48.65625 -2.03125 L 48.359375 -2.03125 C 47.972656 -1.707031 47.523438 -1.578125 47.015625 -1.640625 L 45.9375 -2.234375 C 44.457031 -6.046875 42.90625 -9.875 41.28125 -13.71875 C 39.664062 -17.5625 37.957031 -21.359375 36.15625 -25.109375 L 35.953125 -25.109375 C 32.335938 -20.648438 28.832031 -16.078125 25.4375 -11.390625 C 22.050781 -6.703125 18.644531 -2.097656 15.21875 2.421875 L 14.15625 2.421875 C 13.632812 2.222656 13.273438 1.867188 13.078125 1.359375 L 12.984375 0.671875 C 13.566406 -0.421875 14.148438 -1.515625 14.734375 -2.609375 L 14.640625 -2.90625 L 14.4375 -2.90625 C 13.925781 -2.195312 13.441406 -1.46875 12.984375 -0.71875 C 12.535156 0.0195312 11.988281 0.644531 11.34375 1.15625 L 10.46875 1.265625 L 9.40625 0.578125 L 9.015625 -0.578125 C 9.597656 -1.742188 10.273438 -2.910156 11.046875 -4.078125 L 10.078125 -5.046875 L 9.890625 -5.046875 C 9.304688 -4.265625 8.785156 -3.453125 8.328125 -2.609375 C 7.878906 -1.773438 7.300781 -1.035156 6.59375 -0.390625 L 5.8125 -0.296875 C 4.976562 -0.484375 4.203125 -0.804688 3.484375 -1.265625 L 3.109375 -2.515625 C 7.046875 -8.910156 11.160156 -15.226562 15.453125 -21.46875 C 19.753906 -27.707031 24.101562 -33.957031 28.5 -40.21875 C 26.101562 -45.132812 23.351562 -49.835938 20.25 -54.328125 C 17.15625 -58.816406 13.863281 -63.128906 10.375 -67.265625 L 10.953125 -68.234375 C 11.335938 -68.554688 11.820312 -68.6875 12.40625 -68.625 L 13.28125 -68.140625 L 14.734375 -66.6875 C 14.859375 -67.195312 15.179688 -67.550781 15.703125 -67.75 L 16.671875 -67.84375 C 17.253906 -67.457031 17.835938 -67.164062 18.421875 -66.96875 L 19.1875 -67.078125 C 20.09375 -66.554688 20.9375 -65.972656 21.71875 -65.328125 L 22.484375 -66 L 23.453125 -66.109375 L 24.328125 -65.625 L 26.078125 -63 C 26.585938 -63 27.035156 -62.835938 27.421875 -62.515625 C 29.046875 -60.640625 30.628906 -58.75 32.171875 -56.84375 C 33.722656 -54.9375 35.210938 -52.984375 36.640625 -50.984375 L 36.828125 -50.984375 C 39.804688 -54.734375 42.8125 -58.476562 45.84375 -62.21875 C 48.882812 -65.96875 51.988281 -69.617188 55.15625 -73.171875 L 56.125 -73.28125 L 56.984375 -72.796875 L 57.46875 -72.40625 C 58.1875 -73.4375 59.03125 -74.335938 60 -75.109375 L 60.96875 -75.21875 L 61.734375 -74.921875 L 63.78125 -77.734375 C 64.164062 -78.054688 64.648438 -78.1875 65.234375 -78.125 L 66.109375 -77.640625 C 66.429688 -77.242188 66.59375 -76.757812 66.59375 -76.1875 L 66.875 -76.1875 L 67.9375 -76.375 L 68.8125 -75.890625 C 69.132812 -75.503906 69.296875 -75.019531 69.296875 -74.4375 C 68.648438 -73.40625 67.875 -72.4375 66.96875 -71.53125 L 68.046875 -71.046875 C 68.367188 -70.660156 68.53125 -70.175781 68.53125 -69.59375 C 68.269531 -68.945312 67.847656 -68.363281 67.265625 -67.84375 L 66.875 -67.453125 L 66.484375 -67.171875 L 66.484375 -66.875 L 67.078125 -66.59375 L 67.453125 -65.71875 C 68.035156 -65.78125 68.554688 -65.617188 69.015625 -65.234375 C 69.335938 -64.835938 69.5 -64.351562 69.5 -63.78125 C 69.300781 -63.195312 68.941406 -62.710938 68.421875 -62.328125 L 68.140625 -62.21875 L 58.4375 -51.375 L 58.25 -51.375 L 49.921875 -41.671875 L 49.71875 -41.671875 L 46.03125 -37.125 C 48.75 -32.925781 51.367188 -28.707031 53.890625 -24.46875 C 56.410156 -20.238281 58.671875 -15.894531 60.671875 -11.4375 L 60.09375 -10.5625 L 59.3125 -10.171875 L 59.3125 -9.6875 C 60.03125 -8.070312 60.757812 -6.441406 61.5 -4.796875 C 62.238281 -3.148438 62.800781 -1.453125 63.1875 0.296875 C 63 0.804688 62.644531 1.191406 62.125 1.453125 L 61.25 1.546875 L 60.28125 1.15625 C 60.351562 1.675781 60.191406 2.128906 59.796875 2.515625 C 59.347656 2.910156 58.800781 3.039062 58.15625 2.90625 L 57.375 2.421875 L 56.984375 1.640625 L 56.703125 1.546875 C 56.316406 1.929688 55.800781 2.09375 55.15625 2.03125 L 54.1875 1.359375 L 53.703125 0.1875 L 53.5 0.1875 L 53.3125 0.296875 L 53.3125 0.671875 C 53.757812 1.316406 53.953125 2.0625 53.890625 2.90625 L 53.3125 3.78125 C 52.925781 4.101562 52.472656 4.234375 51.953125 4.171875 Z M 51.953125 4.171875 "/></g></g></g><g fill="#000000" fill-opacity="1"><g transform="translate(112.075818, 228.231849)"><g><path d="M 23.796875 3 L 21.25 1.609375 C 20.632812 0.691406 20.25 -0.378906 20.09375 -1.609375 L 20.09375 -10.859375 C 18.863281 -11.472656 17.941406 -12.394531 17.328125 -13.625 L 17.09375 -18.015625 L 17.328125 -21.9375 L 16.40625 -24.484375 L 14.328125 -26.796875 L 14.09375 -28.1875 L 14.09375 -39.265625 C 15.164062 -56.359375 17.859375 -73.257812 22.171875 -89.96875 C 26.484375 -106.6875 31.566406 -123.050781 37.421875 -139.0625 C 38.503906 -139.832031 39.8125 -140.140625 41.34375 -139.984375 C 41.8125 -142.296875 42.660156 -144.453125 43.890625 -146.453125 C 44.816406 -147.222656 45.972656 -147.53125 47.359375 -147.375 L 49.4375 -146.21875 L 51.28125 -144.609375 L 53.828125 -145.0625 L 55.90625 -143.921875 C 56.675781 -142.992188 57.0625 -141.835938 57.0625 -140.453125 L 56.359375 -136.984375 C 58.054688 -137.296875 59.441406 -136.910156 60.515625 -135.828125 C 61.285156 -134.753906 61.671875 -133.523438 61.671875 -132.140625 C 59.984375 -124.128906 58.519531 -116.003906 57.28125 -107.765625 C 56.050781 -99.523438 54.898438 -91.25 53.828125 -82.9375 L 54.28125 -82.9375 C 58.75 -86.164062 63.175781 -89.507812 67.5625 -92.96875 C 71.957031 -96.4375 76.3125 -99.941406 80.625 -103.484375 L 80.625 -103.953125 L 88.015625 -110.1875 L 88.015625 -110.65625 L 90.546875 -113.1875 L 91.015625 -113.1875 C 95.328125 -118.269531 99.40625 -123.617188 103.25 -129.234375 C 107.101562 -134.859375 109.335938 -141.0625 109.953125 -147.84375 C 109.796875 -151.070312 108.410156 -153.765625 105.796875 -155.921875 C 102.710938 -158.078125 99.320312 -159.539062 95.625 -160.3125 C 91.9375 -161.082031 88.085938 -161.46875 84.078125 -161.46875 C 72.378906 -160.851562 60.867188 -158.660156 49.546875 -154.890625 C 38.234375 -151.117188 27.570312 -146.148438 17.5625 -139.984375 L 15.703125 -137.90625 L 13.171875 -137.453125 L 10.859375 -138.609375 L 9.703125 -141.140625 C 8.316406 -141.140625 7.160156 -141.523438 6.234375 -142.296875 C 5.304688 -143.378906 4.921875 -144.613281 5.078125 -146 L 7.15625 -149 L 8.3125 -149.921875 C 8.3125 -151.460938 8.851562 -152.769531 9.9375 -153.84375 C 21.632812 -162.007812 34.222656 -168.441406 47.703125 -173.140625 C 61.179688 -177.835938 75.003906 -180.878906 89.171875 -182.265625 L 101.40625 -182.265625 C 107.875 -181.648438 114.070312 -180.265625 120 -178.109375 C 125.9375 -175.953125 131.289062 -172.5625 136.0625 -167.9375 C 138.675781 -164.851562 140.519531 -161.503906 141.59375 -157.890625 C 142.675781 -154.273438 143.066406 -150.382812 142.765625 -146.21875 C 140.910156 -137.75 138.210938 -129.507812 134.671875 -121.5 C 131.128906 -113.5 126.125 -106.34375 119.65625 -100.03125 L 117.8125 -98.171875 L 117.34375 -98.171875 L 117.34375 -97.71875 C 114.414062 -94.789062 111.375 -92.09375 108.21875 -89.625 C 105.0625 -87.164062 102.019531 -84.703125 99.09375 -82.234375 C 103.875 -69.765625 109.457031 -57.597656 115.84375 -45.734375 C 122.238281 -33.878906 128.363281 -21.945312 134.21875 -9.9375 L 132.59375 -7.390625 C 131.519531 -6.773438 130.289062 -6.546875 128.90625 -6.703125 C 127.519531 -7.472656 126.515625 -8.550781 125.890625 -9.9375 C 124.503906 -9.9375 123.273438 -10.164062 122.203125 -10.625 L 120.578125 -9.46875 L 119.65625 -7.625 C 118.582031 -6.851562 117.351562 -6.546875 115.96875 -6.703125 L 114.34375 -7.15625 L 112.734375 -4.625 C 111.804688 -4.007812 110.648438 -3.773438 109.265625 -3.921875 L 106.953125 -5.546875 L 103.953125 -13.390625 C 102.722656 -13.242188 101.644531 -13.628906 100.71875 -14.546875 L 100.03125 -15.484375 C 98.175781 -15.171875 96.632812 -15.707031 95.40625 -17.09375 C 91.25 -25.40625 87.742188 -33.875 84.890625 -42.5 C 82.046875 -51.125 79.46875 -59.75 77.15625 -68.375 C 75.457031 -67.144531 73.835938 -65.796875 72.296875 -64.328125 C 70.765625 -62.867188 68.992188 -61.984375 66.984375 -61.671875 L 65.609375 -61.90625 L 64.453125 -60.515625 C 63.523438 -59.753906 62.367188 -59.445312 60.984375 -59.59375 L 58.671875 -60.984375 C 57.898438 -61.910156 57.59375 -63.066406 57.75 -64.453125 L 58.21875 -65.828125 L 54.515625 -66.765625 L 51.75 -64.90625 C 50.664062 -55.976562 49.738281 -46.96875 48.96875 -37.875 C 48.195312 -28.789062 47.117188 -19.863281 45.734375 -11.09375 L 42.5 -9.9375 C 41.269531 -10.707031 39.804688 -11.015625 38.109375 -10.859375 L 36.734375 -10.625 L 34.875 -11.3125 C 34.726562 -9.3125 34.65625 -7.234375 34.65625 -5.078125 C 34.65625 -2.921875 34.113281 -1 33.03125 0.6875 C 31.957031 1.457031 30.726562 1.765625 29.34375 1.609375 L 27.71875 1.15625 C 26.644531 2.382812 25.335938 3 23.796875 3 Z M 23.796875 3 "/></g></g></g></svg>