<svg xmlns="http://www.w3.org/2000/svg" xmlns:xlink="http://www.w3.org/1999/xlink" zoomAndPan="magnify" viewBox="0 0 375 374.999991"  preserveAspectRatio="xMidYMid meet" version="1.0">
  <defs>
    <g />
    <clipPath id="id1">
      <path d="M 135.390625 83.285156 L 239.640625 83.285156 L 239.640625 187.535156 L 135.390625 187.535156 Z M 135.390625 83.285156 " clip-rule="nonzero" />
    </clipPath>
  </defs>
  <path fill="#f4f6fc" d="M 189.195312 115.609375 C 190.527344 115.609375 191.582031 114.535156 191.582031 113.222656 C 191.582031 111.90625 190.527344 110.851562 189.195312 110.851562 C 187.878906 110.851562 186.824219 111.90625 186.824219 113.222656 C 186.824219 114.535156 187.878906 115.609375 189.195312 115.609375 Z M 189.195312 115.609375 " fill-opacity="1" fill-rule="nonzero" />
  <path fill="#f4f6fc" d="M 175.035156 115.609375 C 176.367188 115.609375 177.421875 114.535156 177.421875 113.222656 C 177.421875 111.90625 176.367188 110.851562 175.035156 110.851562 C 173.71875 110.851562 172.664062 111.90625 172.664062 113.222656 C 172.664062 114.535156 173.71875 115.609375 175.035156 115.609375 Z M 175.035156 115.609375 " fill-opacity="1" fill-rule="nonzero" />
  <path fill="#f4f6fc" d="M 182.128906 120.074219 C 183.023438 120.074219 183.753906 119.34375 183.753906 118.449219 L 183.753906 116.289062 C 183.753906 115.398438 183.023438 114.667969 182.128906 114.667969 C 181.222656 114.667969 180.507812 115.398438 180.507812 116.289062 L 180.507812 118.449219 C 180.507812 119.34375 181.222656 120.074219 182.128906 120.074219 Z M 182.128906 120.074219 " fill-opacity="1" fill-rule="nonzero" />
  <path fill="#f4f6fc" d="M 185.6875 126.328125 C 186.402344 125.789062 186.546875 124.769531 186.027344 124.050781 C 185.492188 123.339844 184.46875 123.175781 183.753906 123.710938 C 182.601562 124.574219 181.660156 124.574219 180.507812 123.710938 C 179.777344 123.175781 178.769531 123.339844 178.234375 124.050781 C 177.699219 124.769531 177.84375 125.789062 178.558594 126.328125 C 180.878906 128.027344 183.335938 128.046875 185.6875 126.328125 Z M 185.6875 126.328125 " fill-opacity="1" fill-rule="nonzero" />
  <g clip-path="url(#id1)">
    <path fill="#f4f6fc" d="M 143.257812 172.410156 L 171.429688 172.410156 C 170.667969 176.601562 166.980469 179.796875 162.464844 179.796875 C 159.101562 179.796875 156.425781 182.535156 156.425781 185.839844 C 156.425781 186.683594 157.109375 187.382812 157.96875 187.382812 C 157.976562 187.382812 158 187.382812 158.035156 187.382812 C 158.027344 187.382812 158.023438 187.382812 158.019531 187.382812 C 158.03125 187.382812 158.039062 187.382812 158.046875 187.382812 C 158.078125 187.382812 158.113281 187.382812 158.15625 187.382812 C 158.148438 187.382812 158.140625 187.382812 158.128906 187.382812 C 158.179688 187.382812 158.222656 187.382812 158.265625 187.382812 C 158.355469 187.382812 158.46875 187.382812 158.609375 187.382812 C 158.566406 187.382812 158.515625 187.382812 158.464844 187.382812 C 158.625 187.382812 158.714844 187.382812 158.753906 187.382812 C 161.980469 187.386719 176.980469 187.402344 235.816406 187.464844 C 236.921875 187.464844 237.746094 186.324219 237.324219 185.238281 C 235.054688 179.472656 234.46875 173.492188 237.277344 167.878906 C 237.519531 167.375 237.488281 166.777344 237.195312 166.304688 C 236.886719 165.816406 236.367188 165.542969 235.816406 165.542969 L 228.214844 165.542969 C 228.332031 163.726562 228.34375 163.808594 228.34375 163.234375 L 228.328125 115.105469 C 230.75 114.308594 232.957031 112.914062 234.792969 111.03125 C 237.878906 107.847656 239.515625 103.640625 239.402344 99.191406 C 239.160156 90.699219 232.046875 83.601562 223.554688 83.359375 C 219.136719 83.230469 214.914062 84.871094 211.734375 87.957031 C 208.550781 91.054688 206.796875 95.230469 206.796875 99.664062 C 206.796875 99.988281 206.8125 100.328125 206.828125 100.652344 L 201.699219 100.652344 L 201.699219 99.90625 C 201.699219 92.160156 191.859375 88.6875 182.113281 88.6875 C 172.386719 88.6875 162.5625 92.160156 162.5625 99.90625 L 162.5625 100.652344 L 145.855469 100.652344 C 140 100.652344 135.625 105.429688 135.625 110.867188 L 135.625 163.234375 C 135.625 168.25 138.050781 172.410156 143.257812 172.410156 Z M 158.082031 154.53125 L 158.082031 152.695312 C 158.082031 145.84375 163.683594 140.257812 170.535156 140.257812 L 170.941406 140.257812 C 171.039062 140.535156 171.203125 140.777344 171.398438 141.007812 L 180.3125 150.585938 C 181.332031 151.675781 182.953125 151.617188 183.917969 150.585938 L 192.832031 141.007812 C 193.042969 140.777344 193.207031 140.535156 193.320312 140.257812 L 193.449219 140.257812 C 200.300781 140.257812 205.871094 145.828125 205.871094 152.679688 L 205.871094 154.53125 Z M 178.023438 140.273438 C 178.753906 139.414062 179.484375 138.082031 179.582031 135.777344 C 180.425781 135.859375 181.285156 135.890625 182.148438 135.890625 C 182.992188 135.890625 183.835938 135.859375 184.664062 135.792969 C 184.761719 138.066406 185.476562 139.398438 186.222656 140.257812 L 182.113281 144.675781 Z M 181.984375 166.484375 C 180.296875 166.484375 178.933594 165.101562 178.933594 163.414062 C 178.933594 161.742188 180.296875 160.378906 181.984375 160.378906 C 183.671875 160.378906 185.039062 161.742188 185.039062 163.414062 C 185.039062 165.101562 183.671875 166.484375 181.984375 166.484375 Z M 233.363281 168.789062 C 232.785156 170.46875 232.503906 171.972656 232.503906 172.132812 C 222.9375 172.132812 221.714844 172.132812 205.59375 172.132812 C 203.035156 172.132812 200.886719 174.238281 200.886719 176.859375 C 200.886719 179.5 203.019531 181.570312 205.59375 181.570312 C 216.5 181.570312 221.921875 181.570312 232.808594 181.570312 C 232.863281 181.980469 233.300781 183.550781 233.507812 184.214844 C 219.0625 184.214844 203.050781 184.214844 196.582031 184.214844 C 192.328125 184.214844 188.871094 180.742188 188.871094 176.503906 C 188.871094 172.214844 192.296875 168.789062 196.582031 168.789062 C 197.386719 168.789062 234.53125 168.789062 233.363281 168.789062 Z M 226.28125 105.3125 C 221.152344 105.3125 222.53125 105.3125 217.691406 105.3125 C 215.554688 105.3125 215.539062 102.066406 217.691406 102.066406 C 217.976562 102.066406 226.597656 102.066406 226.28125 102.066406 C 227.175781 102.066406 227.90625 102.796875 227.90625 103.691406 C 227.90625 104.613281 227.132812 105.3125 226.28125 105.3125 Z M 217.691406 94.125 L 231.496094 94.125 C 232.40625 94.125 233.121094 94.855469 233.121094 95.75 C 233.121094 96.660156 232.40625 97.375 231.496094 97.375 L 217.691406 97.375 C 216.800781 97.375 216.070312 96.660156 216.070312 95.75 C 216.070312 94.855469 216.800781 94.125 217.691406 94.125 Z M 204.3125 114.488281 C 204.3125 112.476562 203.515625 110.574219 202.085938 109.179688 C 201.957031 109.046875 201.828125 108.917969 201.699219 108.820312 L 201.699219 103.902344 L 207.363281 103.902344 C 207.738281 105.394531 208.355469 106.808594 209.152344 108.140625 L 207.332031 113.613281 C 207.074219 114.40625 207.285156 115.269531 207.867188 115.851562 C 208.449219 116.410156 209.195312 116.625 210.09375 116.371094 L 216.085938 114.390625 C 218.246094 115.429688 220.664062 115.964844 223.082031 115.964844 C 223.75 115.964844 224.429688 115.933594 225.082031 115.835938 L 225.097656 154.53125 L 209.28125 154.53125 L 209.28125 152.679688 C 209.28125 143.960938 202.167969 136.847656 193.449219 136.847656 L 190.347656 136.847656 C 189.746094 136.214844 190.085938 133.84375 190.265625 132.820312 C 194.472656 130.53125 197.605469 126.523438 198.742188 121.746094 C 201.957031 120.902344 204.3125 117.964844 204.3125 114.488281 Z M 168.3125 109.859375 C 173.394531 109.339844 180.523438 108.449219 183.882812 107.199219 C 186.140625 106.351562 187.894531 105.136719 189.210938 103.902344 L 192.832031 103.902344 L 195.949219 106.449219 L 195.949219 117.816406 C 195.949219 125.402344 189.804688 131.652344 182.113281 131.652344 C 174.378906 131.652344 168.3125 125.347656 168.3125 117.816406 Z M 138.871094 110.867188 C 138.871094 107.148438 141.871094 103.902344 145.855469 103.902344 L 162.5625 103.902344 L 162.5625 108.773438 C 160.957031 110.152344 159.933594 112.199219 159.933594 114.488281 C 159.933594 117.964844 162.304688 120.902344 165.519531 121.746094 C 166.640625 126.523438 169.773438 130.53125 173.980469 132.820312 C 174.15625 133.859375 174.5 136.246094 173.882812 136.863281 C 173.816406 136.847656 173.734375 136.847656 173.671875 136.847656 L 170.535156 136.847656 C 161.785156 136.847656 154.671875 143.960938 154.671875 152.695312 L 154.671875 154.53125 L 138.871094 154.53125 Z M 138.871094 110.867188 " fill-opacity="1" fill-rule="nonzero" />
  </g>
  <g fill="#f4f6fc" fill-opacity="1">
    <g transform="translate(150.714842, 220.722641)">
      <g>
        <path d="M 14.28125 0 C 14.125 0 14.015625 -0.0625 13.953125 -0.1875 L 9.6875 -8.984375 C 9.675781 -9.046875 9.640625 -9.078125 9.578125 -9.078125 L 4.109375 -9.078125 C 4.035156 -9.078125 4 -9.039062 4 -8.96875 L 4 -0.265625 C 4 -0.0859375 3.90625 0 3.71875 0 L 3.21875 0 C 3.03125 0 2.9375 -0.0859375 2.9375 -0.265625 L 2.9375 -18.6875 C 2.9375 -18.863281 3.03125 -18.953125 3.21875 -18.953125 L 9.828125 -18.953125 C 11.304688 -18.953125 12.5 -18.492188 13.40625 -17.578125 C 14.3125 -16.660156 14.765625 -15.453125 14.765625 -13.953125 C 14.765625 -12.679688 14.410156 -11.613281 13.703125 -10.75 C 12.992188 -9.882812 12.035156 -9.351562 10.828125 -9.15625 C 10.734375 -9.113281 10.707031 -9.066406 10.75 -9.015625 L 14.953125 -0.328125 C 14.972656 -0.285156 14.984375 -0.238281 14.984375 -0.1875 C 14.984375 -0.0625 14.910156 0 14.765625 0 Z M 4.109375 -17.984375 C 4.035156 -17.984375 4 -17.945312 4 -17.875 L 4 -10.09375 C 4 -10.019531 4.035156 -9.984375 4.109375 -9.984375 L 9.796875 -9.984375 C 10.972656 -9.984375 11.921875 -10.351562 12.640625 -11.09375 C 13.359375 -11.832031 13.71875 -12.785156 13.71875 -13.953125 C 13.71875 -15.160156 13.359375 -16.132812 12.640625 -16.875 C 11.921875 -17.613281 10.972656 -17.984375 9.796875 -17.984375 Z M 4.109375 -17.984375 " />
      </g>
    </g>
  </g>
  <g fill="#f4f6fc" fill-opacity="1">
    <g transform="translate(167.211843, 220.722641)">
      <g>
        <path d="M 7.203125 0.21875 C 5.941406 0.21875 4.878906 -0.109375 4.015625 -0.765625 C 3.160156 -1.421875 2.585938 -2.300781 2.296875 -3.40625 C 2.191406 -3.8125 2.117188 -4.269531 2.078125 -4.78125 C 2.046875 -5.300781 2.03125 -5.972656 2.03125 -6.796875 C 2.03125 -7.648438 2.039062 -8.328125 2.0625 -8.828125 C 2.09375 -9.328125 2.160156 -9.773438 2.265625 -10.171875 C 2.554688 -11.253906 3.140625 -12.125 4.015625 -12.78125 C 4.898438 -13.4375 5.960938 -13.765625 7.203125 -13.765625 C 8.460938 -13.765625 9.535156 -13.4375 10.421875 -12.78125 C 11.316406 -12.125 11.894531 -11.253906 12.15625 -10.171875 C 12.238281 -9.773438 12.289062 -9.332031 12.3125 -8.84375 C 12.34375 -8.363281 12.359375 -7.679688 12.359375 -6.796875 C 12.359375 -5.878906 12.34375 -5.179688 12.3125 -4.703125 C 12.289062 -4.234375 12.238281 -3.800781 12.15625 -3.40625 C 11.882812 -2.300781 11.304688 -1.421875 10.421875 -0.765625 C 9.535156 -0.109375 8.460938 0.21875 7.203125 0.21875 Z M 7.203125 -0.734375 C 8.253906 -0.734375 9.128906 -1.015625 9.828125 -1.578125 C 10.523438 -2.148438 10.972656 -2.894531 11.171875 -3.8125 C 11.234375 -4.082031 11.269531 -4.488281 11.28125 -5.03125 C 11.300781 -5.582031 11.3125 -6.164062 11.3125 -6.78125 C 11.3125 -7.445312 11.300781 -8.046875 11.28125 -8.578125 C 11.269531 -9.109375 11.234375 -9.5 11.171875 -9.75 C 10.992188 -10.664062 10.546875 -11.40625 9.828125 -11.96875 C 9.109375 -12.539062 8.226562 -12.828125 7.1875 -12.828125 C 6.15625 -12.828125 5.285156 -12.539062 4.578125 -11.96875 C 3.878906 -11.40625 3.429688 -10.664062 3.234375 -9.75 C 3.128906 -9.28125 3.078125 -8.289062 3.078125 -6.78125 C 3.078125 -5.25 3.128906 -4.257812 3.234375 -3.8125 C 3.429688 -2.875 3.878906 -2.125 4.578125 -1.5625 C 5.285156 -1.007812 6.160156 -0.734375 7.203125 -0.734375 Z M 7.203125 -0.734375 " />
      </g>
    </g>
  </g>
  <g fill="#f4f6fc" fill-opacity="1">
    <g transform="translate(181.629852, 220.722641)">
      <g>
        <path d="M 10.875 -18.625 C 10.875 -18.8125 10.96875 -18.90625 11.15625 -18.90625 L 11.65625 -18.90625 C 11.84375 -18.90625 11.9375 -18.8125 11.9375 -18.625 L 11.9375 -0.265625 C 11.9375 -0.0859375 11.84375 0 11.65625 0 L 11.15625 0 C 10.96875 0 10.875 -0.0859375 10.875 -0.265625 L 10.875 -1.734375 C 10.875 -1.785156 10.859375 -1.8125 10.828125 -1.8125 C 10.804688 -1.8125 10.78125 -1.789062 10.75 -1.75 C 10.351562 -1.125 9.832031 -0.640625 9.1875 -0.296875 C 8.550781 0.046875 7.820312 0.21875 7 0.21875 C 5.769531 0.21875 4.734375 -0.101562 3.890625 -0.75 C 3.054688 -1.40625 2.503906 -2.269531 2.234375 -3.34375 C 2.128906 -3.738281 2.0625 -4.175781 2.03125 -4.65625 C 2.007812 -5.132812 2 -5.832031 2 -6.75 C 2 -7.664062 2.007812 -8.363281 2.03125 -8.84375 C 2.0625 -9.332031 2.125 -9.773438 2.21875 -10.171875 C 2.488281 -11.253906 3.039062 -12.125 3.875 -12.78125 C 4.707031 -13.4375 5.75 -13.765625 7 -13.765625 C 7.820312 -13.765625 8.554688 -13.585938 9.203125 -13.234375 C 9.847656 -12.890625 10.363281 -12.410156 10.75 -11.796875 C 10.78125 -11.765625 10.804688 -11.75 10.828125 -11.75 C 10.859375 -11.75 10.875 -11.773438 10.875 -11.828125 Z M 10.671875 -3.625 C 10.753906 -3.925781 10.804688 -4.265625 10.828125 -4.640625 C 10.859375 -5.023438 10.875 -5.726562 10.875 -6.75 C 10.875 -7.789062 10.859375 -8.503906 10.828125 -8.890625 C 10.804688 -9.285156 10.742188 -9.644531 10.640625 -9.96875 C 10.472656 -10.789062 10.070312 -11.472656 9.4375 -12.015625 C 8.8125 -12.554688 8.03125 -12.828125 7.09375 -12.828125 C 6.144531 -12.828125 5.328125 -12.5625 4.640625 -12.03125 C 3.960938 -11.5 3.523438 -10.816406 3.328125 -9.984375 C 3.210938 -9.660156 3.132812 -9.300781 3.09375 -8.90625 C 3.0625 -8.507812 3.046875 -7.804688 3.046875 -6.796875 C 3.046875 -5.804688 3.0625 -5.117188 3.09375 -4.734375 C 3.132812 -4.347656 3.203125 -3.976562 3.296875 -3.625 C 3.453125 -2.769531 3.875 -2.070312 4.5625 -1.53125 C 5.257812 -1 6.097656 -0.734375 7.078125 -0.734375 C 8.046875 -0.734375 8.835938 -1.003906 9.453125 -1.546875 C 10.078125 -2.097656 10.484375 -2.789062 10.671875 -3.625 Z M 10.671875 -3.625 " />
      </g>
    </g>
  </g>
  <g fill="#f4f6fc" fill-opacity="1">
    <g transform="translate(196.074859, 220.722641)">
      <g>
        <path d="M 7.34375 -13.65625 C 7.96875 -13.65625 8.5 -13.554688 8.9375 -13.359375 C 9.082031 -13.304688 9.128906 -13.191406 9.078125 -13.015625 L 8.890625 -12.46875 C 8.828125 -12.289062 8.71875 -12.25 8.5625 -12.34375 C 8.164062 -12.488281 7.710938 -12.550781 7.203125 -12.53125 C 6.503906 -12.53125 5.875 -12.335938 5.3125 -11.953125 C 4.757812 -11.578125 4.320312 -11.070312 4 -10.4375 C 3.6875 -9.8125 3.53125 -9.125 3.53125 -8.375 L 3.53125 -0.265625 C 3.53125 -0.0859375 3.441406 0 3.265625 0 L 2.75 0 C 2.570312 0 2.484375 -0.0859375 2.484375 -0.265625 L 2.484375 -13.28125 C 2.484375 -13.457031 2.570312 -13.546875 2.75 -13.546875 L 3.265625 -13.546875 C 3.441406 -13.546875 3.53125 -13.457031 3.53125 -13.28125 L 3.53125 -11.265625 C 3.53125 -11.203125 3.546875 -11.164062 3.578125 -11.15625 C 3.609375 -11.15625 3.628906 -11.179688 3.640625 -11.234375 C 4.023438 -11.984375 4.53125 -12.570312 5.15625 -13 C 5.789062 -13.4375 6.519531 -13.65625 7.34375 -13.65625 Z M 7.34375 -13.65625 " />
      </g>
    </g>
  </g>
  <g fill="#f4f6fc" fill-opacity="1">
    <g transform="translate(205.686865, 220.722641)">
      <g>
        <path d="M 3.234375 -16.53125 C 2.929688 -16.53125 2.675781 -16.628906 2.46875 -16.828125 C 2.257812 -17.023438 2.15625 -17.265625 2.15625 -17.546875 C 2.15625 -17.816406 2.257812 -18.046875 2.46875 -18.234375 C 2.675781 -18.421875 2.929688 -18.515625 3.234375 -18.515625 C 3.546875 -18.515625 3.800781 -18.421875 4 -18.234375 C 4.195312 -18.046875 4.296875 -17.816406 4.296875 -17.546875 C 4.296875 -17.242188 4.195312 -17 4 -16.8125 C 3.800781 -16.625 3.546875 -16.53125 3.234375 -16.53125 Z M 2.96875 0 C 2.789062 0 2.703125 -0.0859375 2.703125 -0.265625 L 2.703125 -13.28125 C 2.703125 -13.457031 2.789062 -13.546875 2.96875 -13.546875 L 3.484375 -13.546875 C 3.660156 -13.546875 3.75 -13.457031 3.75 -13.28125 L 3.75 -0.265625 C 3.75 -0.0859375 3.660156 0 3.484375 0 Z M 2.96875 0 " />
      </g>
    </g>
  </g>
  <g fill="#f4f6fc" fill-opacity="1">
    <g transform="translate(212.139868, 220.722641)">
      <g>
        <path d="M 1.078125 0 C 0.972656 0 0.898438 -0.0351562 0.859375 -0.109375 C 0.828125 -0.179688 0.847656 -0.253906 0.921875 -0.328125 L 5.453125 -6.703125 C 5.492188 -6.753906 5.492188 -6.804688 5.453125 -6.859375 L 0.921875 -13.234375 C 0.878906 -13.265625 0.859375 -13.316406 0.859375 -13.390625 C 0.859375 -13.429688 0.875 -13.46875 0.90625 -13.5 C 0.945312 -13.53125 1.003906 -13.546875 1.078125 -13.546875 L 1.625 -13.546875 C 1.769531 -13.546875 1.875 -13.492188 1.9375 -13.390625 L 6 -7.6875 C 6.007812 -7.675781 6.03125 -7.671875 6.0625 -7.671875 C 6.101562 -7.671875 6.132812 -7.675781 6.15625 -7.6875 L 10.125 -13.390625 C 10.195312 -13.492188 10.304688 -13.546875 10.453125 -13.546875 L 11.046875 -13.546875 C 11.148438 -13.546875 11.21875 -13.507812 11.25 -13.4375 C 11.289062 -13.375 11.273438 -13.304688 11.203125 -13.234375 L 6.703125 -6.859375 C 6.679688 -6.804688 6.679688 -6.753906 6.703125 -6.703125 L 11.203125 -0.328125 C 11.242188 -0.285156 11.265625 -0.226562 11.265625 -0.15625 C 11.265625 -0.125 11.242188 -0.0859375 11.203125 -0.046875 C 11.171875 -0.015625 11.117188 0 11.046875 0 L 10.46875 0 C 10.332031 0 10.226562 -0.0507812 10.15625 -0.15625 L 6.1875 -5.859375 C 6.164062 -5.890625 6.132812 -5.90625 6.09375 -5.90625 C 6.0625 -5.90625 6.035156 -5.890625 6.015625 -5.859375 L 2 -0.15625 C 1.925781 -0.0507812 1.816406 0 1.671875 0 Z M 1.078125 0 " />
      </g>
    </g>
  </g>
  <g fill="#f4f6fc" fill-opacity="1">
    <g transform="translate(116.925468, 243.322587)">
      <g>
        <path d="M 10.402344 -10.535156 L 10.402344 -11.726562 L 0.578125 -11.726562 L 0.578125 -10.535156 L 4.757812 -10.535156 L 4.757812 0 L 6.21875 0 L 6.21875 -10.535156 Z M 10.402344 -10.535156 " />
      </g>
    </g>
  </g>
  <g fill="#f4f6fc" fill-opacity="1">
    <g transform="translate(128.089672, 243.322587)">
      <g>
        <path d="M 11.082031 -11.726562 L 9.621094 -11.726562 L 9.621094 -6.355469 L 3.160156 -6.355469 L 3.160156 -11.726562 L 1.699219 -11.726562 L 1.699219 0 L 3.160156 0 L 3.160156 -5.132812 L 9.621094 -5.132812 L 9.621094 0 L 11.082031 0 Z M 11.082031 -11.726562 " />
      </g>
    </g>
  </g>
  <g fill="#f4f6fc" fill-opacity="1">
    <g transform="translate(141.25895, 243.322587)">
      <g>
        <path d="M 9.5 -1.191406 L 3.160156 -1.191406 L 3.160156 -5.269531 L 8.820312 -5.269531 L 8.820312 -6.457031 L 3.160156 -6.457031 L 3.160156 -10.535156 L 9.332031 -10.535156 L 9.332031 -11.726562 L 1.699219 -11.726562 L 1.699219 0 L 9.5 0 Z M 9.5 -1.191406 " />
      </g>
    </g>
  </g>
  <g fill="#f4f6fc" fill-opacity="1">
    <g transform="translate(156.433657, 243.322587)">
      <g>
        <path d="M 6.765625 -11.660156 C 6.167969 -11.726562 5.898438 -11.726562 5.269531 -11.726562 L 1.699219 -11.726562 L 1.699219 0 L 5.183594 0 C 5.8125 0 6.085938 0 6.679688 -0.0664062 C 9.398438 -0.40625 11.402344 -2.550781 11.402344 -6 C 11.402344 -9.5 9.484375 -11.320312 6.765625 -11.660156 Z M 6.527344 -1.273438 C 6.152344 -1.207031 5.710938 -1.191406 5.097656 -1.191406 L 3.160156 -1.191406 L 3.160156 -10.535156 L 5.183594 -10.535156 C 5.796875 -10.535156 6.238281 -10.519531 6.609375 -10.453125 C 8.597656 -10.128906 9.804688 -8.597656 9.804688 -6 C 9.804688 -3.230469 8.515625 -1.597656 6.527344 -1.273438 Z M 6.527344 -1.273438 " />
      </g>
    </g>
  </g>
  <g fill="#f4f6fc" fill-opacity="1">
    <g transform="translate(169.246095, 243.322587)">
      <g>
        <path d="M 9.5 -1.191406 L 3.160156 -1.191406 L 3.160156 -5.269531 L 8.820312 -5.269531 L 8.820312 -6.457031 L 3.160156 -6.457031 L 3.160156 -10.535156 L 9.332031 -10.535156 L 9.332031 -11.726562 L 1.699219 -11.726562 L 1.699219 0 L 9.5 0 Z M 9.5 -1.191406 " />
      </g>
    </g>
  </g>
  <g fill="#f4f6fc" fill-opacity="1">
    <g transform="translate(179.985494, 243.322587)">
      <g>
        <path d="M 6.558594 0 L 10.773438 -11.726562 L 9.210938 -11.726562 L 5.609375 -1.105469 L 2.125 -11.726562 L 0.542969 -11.726562 L 4.589844 0 Z M 6.558594 0 " />
      </g>
    </g>
  </g>
  <g fill="#f4f6fc" fill-opacity="1">
    <g transform="translate(191.319618, 243.322587)">
      <g>
        <path d="M 9.5 -1.191406 L 3.160156 -1.191406 L 3.160156 -5.269531 L 8.820312 -5.269531 L 8.820312 -6.457031 L 3.160156 -6.457031 L 3.160156 -10.535156 L 9.332031 -10.535156 L 9.332031 -11.726562 L 1.699219 -11.726562 L 1.699219 0 L 9.5 0 Z M 9.5 -1.191406 " />
      </g>
    </g>
  </g>
  <g fill="#f4f6fc" fill-opacity="1">
    <g transform="translate(202.059017, 243.322587)">
      <g>
        <path d="M 9.5 -1.191406 L 3.160156 -1.191406 L 3.160156 -11.726562 L 1.699219 -11.726562 L 1.699219 0 L 9.5 0 Z M 9.5 -1.191406 " />
      </g>
    </g>
  </g>
  <g fill="#f4f6fc" fill-opacity="1">
    <g transform="translate(212.594504, 243.322587)">
      <g>
        <path d="M 6.339844 -11.964844 C 2.769531 -11.964844 0.796875 -9.449219 0.796875 -5.863281 C 0.796875 -2.292969 2.769531 0.238281 6.339844 0.238281 C 9.90625 0.238281 11.878906 -2.292969 11.878906 -5.863281 C 11.878906 -9.449219 9.90625 -11.964844 6.339844 -11.964844 Z M 6.339844 -0.917969 C 3.875 -0.917969 2.429688 -2.820312 2.429688 -5.863281 C 2.429688 -8.921875 3.875 -10.808594 6.339844 -10.808594 C 8.804688 -10.808594 10.246094 -8.921875 10.246094 -5.863281 C 10.246094 -2.820312 8.804688 -0.917969 6.339844 -0.917969 Z M 6.339844 -0.917969 " />
      </g>
    </g>
  </g>
  <g fill="#f4f6fc" fill-opacity="1">
    <g transform="translate(225.882724, 243.322587)">
      <g>
        <path d="M 6.867188 -11.660156 C 6.339844 -11.726562 5.929688 -11.726562 5.335938 -11.726562 L 1.699219 -11.726562 L 1.699219 0 L 3.160156 0 L 3.160156 -4.792969 L 5.335938 -4.792969 C 5.929688 -4.792969 6.339844 -4.792969 6.867188 -4.859375 C 8.566406 -5.082031 9.90625 -6.269531 9.90625 -8.257812 C 9.90625 -10.246094 8.734375 -11.421875 6.867188 -11.660156 Z M 6.78125 -6.101562 C 6.457031 -6.035156 6 -6.015625 5.472656 -6.015625 L 3.160156 -6.015625 L 3.160156 -10.503906 L 5.472656 -10.503906 C 6 -10.503906 6.457031 -10.484375 6.78125 -10.417969 C 7.613281 -10.230469 8.34375 -9.621094 8.34375 -8.257812 C 8.34375 -6.898438 7.613281 -6.289062 6.78125 -6.101562 Z M 6.78125 -6.101562 " />
      </g>
    </g>
  </g>
  <g fill="#f4f6fc" fill-opacity="1">
    <g transform="translate(236.809039, 243.322587)">
      <g>
        <path d="M 9.5 -1.191406 L 3.160156 -1.191406 L 3.160156 -5.269531 L 8.820312 -5.269531 L 8.820312 -6.457031 L 3.160156 -6.457031 L 3.160156 -10.535156 L 9.332031 -10.535156 L 9.332031 -11.726562 L 1.699219 -11.726562 L 1.699219 0 L 9.5 0 Z M 9.5 -1.191406 " />
      </g>
    </g>
  </g>
  <g fill="#f4f6fc" fill-opacity="1">
    <g transform="translate(247.548437, 243.322587)">
      <g>
        <path d="M 9.414062 -3.074219 C 9.3125 -4.25 8.855469 -5.320312 7.902344 -5.761719 C 8.992188 -6.101562 9.992188 -6.984375 9.992188 -8.53125 C 9.992188 -10.503906 8.769531 -11.4375 7.070312 -11.660156 C 6.542969 -11.726562 6.136719 -11.726562 5.539062 -11.726562 L 1.699219 -11.726562 L 1.699219 0 L 3.160156 0 L 3.160156 -5.046875 L 5.371094 -5.046875 C 5.640625 -5.046875 5.929688 -5.046875 6.203125 -5.03125 C 7.359375 -4.945312 7.816406 -4.148438 7.953125 -2.941406 C 8.105469 -1.496094 8.257812 -0.746094 8.582031 0 L 10.195312 0 C 9.722656 -0.628906 9.550781 -1.546875 9.414062 -3.074219 Z M 3.160156 -6.238281 L 3.160156 -10.535156 L 5.539062 -10.535156 C 6.066406 -10.535156 6.390625 -10.519531 6.714844 -10.46875 C 7.800781 -10.300781 8.429688 -9.703125 8.429688 -8.394531 C 8.429688 -7.070312 7.628906 -6.375 6.542969 -6.269531 C 6.21875 -6.238281 5.929688 -6.238281 5.40625 -6.238281 Z M 3.160156 -6.238281 " />
      </g>
    </g>
  </g>
</svg>
